<?xml version="1.0" encoding="UTF-8" standalone="no"?>
<svg
   xmlns:dc="http://purl.org/dc/elements/1.1/"
   xmlns:cc="http://creativecommons.org/ns#"
   xmlns:rdf="http://www.w3.org/1999/02/22-rdf-syntax-ns#"
   xmlns:svg="http://www.w3.org/2000/svg"
   xmlns="http://www.w3.org/2000/svg"
   xmlns:sodipodi="http://sodipodi.sourceforge.net/DTD/sodipodi-0.dtd"
   xmlns:inkscape="http://www.inkscape.org/namespaces/inkscape"
   version="1.1"
   width="32"
   height="32"
   viewBox="0 0 32 32"
   id="svg10"
   sodipodi:docname="instagram-w.svg"
   inkscape:version="1.0.1 (3bc2e813f5, 2020-09-07)">
  <metadata
     id="metadata16">
    <rdf:RDF>
      <cc:Work
         rdf:about="">
        <dc:format>image/svg+xml</dc:format>
        <dc:type
           rdf:resource="http://purl.org/dc/dcmitype/StillImage" />
        <dc:title>instagram</dc:title>
      </cc:Work>
    </rdf:RDF>
  </metadata>
  <defs
     id="defs14" />
  <sodipodi:namedview
     pagecolor="#ffffff"
     bordercolor="#666666"
     borderopacity="1"
     objecttolerance="10"
     gridtolerance="10"
     guidetolerance="10"
     inkscape:pageopacity="0"
     inkscape:pageshadow="2"
     inkscape:window-width="1600"
     inkscape:window-height="837"
     id="namedview12"
     showgrid="false"
     inkscape:zoom="16.8125"
     inkscape:cx="16"
     inkscape:cy="16"
     inkscape:window-x="-8"
     inkscape:window-y="-8"
     inkscape:window-maximized="1"
     inkscape:current-layer="svg10" />
  <title
     id="title2">instagram</title>
  <path
     d="M16 2.881c4.275 0 4.781 0.019 6.462 0.094 1.563 0.069 2.406 0.331 2.969 0.55 0.744 0.288 1.281 0.638 1.837 1.194 0.563 0.563 0.906 1.094 1.2 1.838 0.219 0.563 0.481 1.412 0.55 2.969 0.075 1.688 0.094 2.194 0.094 6.463s-0.019 4.781-0.094 6.463c-0.069 1.563-0.331 2.406-0.55 2.969-0.288 0.744-0.637 1.281-1.194 1.837-0.563 0.563-1.094 0.906-1.837 1.2-0.563 0.219-1.413 0.481-2.969 0.55-1.688 0.075-2.194 0.094-6.463 0.094s-4.781-0.019-6.463-0.094c-1.563-0.069-2.406-0.331-2.969-0.55-0.744-0.288-1.281-0.637-1.838-1.194-0.563-0.563-0.906-1.094-1.2-1.837-0.219-0.563-0.481-1.413-0.55-2.969-0.075-1.688-0.094-2.194-0.094-6.463s0.019-4.781 0.094-6.463c0.069-1.563 0.331-2.406 0.55-2.969 0.288-0.744 0.638-1.281 1.194-1.838 0.563-0.563 1.094-0.906 1.838-1.2 0.563-0.219 1.412-0.481 2.969-0.55 1.681-0.075 2.188-0.094 6.463-0.094zM16 0c-4.344 0-4.887 0.019-6.594 0.094-1.7 0.075-2.869 0.35-3.881 0.744-1.056 0.412-1.95 0.956-2.837 1.85-0.894 0.888-1.438 1.781-1.85 2.831-0.394 1.019-0.669 2.181-0.744 3.881-0.075 1.713-0.094 2.256-0.094 6.6s0.019 4.887 0.094 6.594c0.075 1.7 0.35 2.869 0.744 3.881 0.413 1.056 0.956 1.95 1.85 2.837 0.887 0.887 1.781 1.438 2.831 1.844 1.019 0.394 2.181 0.669 3.881 0.744 1.706 0.075 2.25 0.094 6.594 0.094s4.888-0.019 6.594-0.094c1.7-0.075 2.869-0.35 3.881-0.744 1.050-0.406 1.944-0.956 2.831-1.844s1.438-1.781 1.844-2.831c0.394-1.019 0.669-2.181 0.744-3.881 0.075-1.706 0.094-2.25 0.094-6.594s-0.019-4.887-0.094-6.594c-0.075-1.7-0.35-2.869-0.744-3.881-0.394-1.063-0.938-1.956-1.831-2.844-0.887-0.887-1.781-1.438-2.831-1.844-1.019-0.394-2.181-0.669-3.881-0.744-1.712-0.081-2.256-0.1-6.6-0.1v0z"
     id="path4" />
  <path
     d="M16 7.781c-4.537 0-8.219 3.681-8.219 8.219s3.681 8.219 8.219 8.219 8.219-3.681 8.219-8.219c0-4.537-3.681-8.219-8.219-8.219zM16 21.331c-2.944 0-5.331-2.387-5.331-5.331s2.387-5.331 5.331-5.331c2.944 0 5.331 2.387 5.331 5.331s-2.387 5.331-5.331 5.331z"
     id="path6" />
  <path
     d="M26.462 7.456c0 1.060-0.859 1.919-1.919 1.919s-1.919-0.859-1.919-1.919c0-1.060 0.859-1.919 1.919-1.919s1.919 0.859 1.919 1.919z"
     id="path8" />
  <path
     style="fill:#ffffff;stroke-width:0.0594796"
     d="M 9.4869888,31.87453 C 7.0181181,31.740739 5.1966229,31.200708 3.7616966,30.177113 3.2055893,29.780418 2.3614781,28.95179 1.9271124,28.37618 1.4727471,27.774066 0.91385749,26.666362 0.6630767,25.870894 0.45405207,25.207875 0.26742145,24.256285 0.17366067,23.375465 0.01674749,21.90137 0.01674749,10.09863 0.17366067,8.6245353 0.33674653,7.092452 0.63674462,5.979956 1.1921615,4.8475836 2.3504316,2.4861265 4.5452537,0.88696381 7.3484372,0.36207842 8.4686376,0.15232507 9.088361,0.11762897 12.788104,0.05753099 c 3.736854,-0.06070079 9.39234,0.003846 10.557621,0.12049546 2.706835,0.27096559 4.534201,1.08198465 6.079168,2.69804895 0.915035,0.9571427 1.490425,1.9626041 1.91235,3.3417203 0.527921,1.7255768 0.60195,2.9374715 0.601186,9.8416843 -7.74e-4,6.994591 -0.0817,8.181342 -0.679718,9.968505 -0.432624,1.292878 -1.028277,2.266158 -1.965031,3.210804 -0.879374,0.886782 -1.676363,1.416719 -2.800634,1.862204 -1.185822,0.469874 -2.32043,0.680625 -4.188213,0.777952 -1.350778,0.07039 -11.502037,0.06689 -12.8178442,-0.0044 z M 20.955473,29.083869 c 2.634492,-0.0805 3.545224,-0.208566 4.610648,-0.648317 0.636534,-0.262728 1.107029,-0.567953 1.605795,-1.041732 0.998847,-0.948807 1.53246,-2.073216 1.760789,-3.710267 0.165515,-1.186689 0.227764,-4.072558 0.193964,-8.992103 C 29.087827,9.0379854 29.03577,8.2266528 28.629117,6.9368625 28.321079,5.9598519 27.910437,5.3095162 27.136531,4.5730434 26.127481,3.6128012 24.92687,3.1583096 22.899628,2.9691626 22.515675,2.9333387 20.036907,2.8913494 17.249071,2.8734443 9.3631025,2.8227963 7.743796,2.933613 6.268025,3.6249287 5.6100367,3.9331591 5.1638105,4.2508416 4.6623817,4.7680368 4.1637651,5.2823312 3.9267383,5.6216736 3.6543834,6.21115 3.1533826,7.2955004 3.0054065,8.2181181 2.9095662,10.855019 c -0.081511,2.242664 -0.038323,10.627084 0.061123,11.866171 0.1254199,1.562719 0.3889548,2.582974 0.900509,3.486251 0.3068846,0.541881 1.145339,1.425931 1.6848993,1.776525 0.7540494,0.489962 1.8810728,0.847158 3.109504,0.985519 1.3918725,0.15677 8.6823155,0.224623 12.2898715,0.114384 z"
     id="path22" />
  <path
     style="fill:#ffffff;stroke-width:0.0594796"
     d="M 23.930555,9.2281894 C 22.936394,8.8846323 22.41734,7.7951465 22.782653,6.8187609 23.054569,6.0920001 23.759138,5.5912151 24.50985,5.591125 c 0.588261,-7.06e-5 0.914804,0.1365484 1.339294,0.5603328 0.455699,0.454941 0.587711,0.7990633 0.546655,1.4249906 -0.08152,1.2428612 -1.295239,2.0560654 -2.465244,1.651741 z"
     id="path24" />
  <path
     style="fill:#ffffff;stroke-width:0.0594796"
     d="M 15.375465,24.172214 C 12.960782,23.930956 10.847783,22.75938 9.4387107,20.880514 7.9041325,18.834299 7.4254969,16.143042 8.1551606,13.66341 9.0128923,10.748562 11.515698,8.5158603 14.572491,7.9386421 c 0.76404,-0.1442747 2.090978,-0.1442747 2.855018,0 3.399156,0.641867 5.991982,3.2346929 6.633849,6.6338489 0.144275,0.76404 0.144275,2.090978 0,2.855018 -0.557378,2.951725 -2.660636,5.393804 -5.450149,6.32813 -0.920253,0.308232 -2.405859,0.499491 -3.235744,0.416575 z m 1.993824,-2.988721 c 2.375133,-0.648996 3.986602,-2.754253 3.983089,-5.203595 -0.0026,-1.794343 -0.900645,-3.457783 -2.400155,-4.445648 -2.474293,-1.6300443 -5.762787,-0.964321 -7.412482,1.500584 -0.5916,0.883944 -0.893688,1.895265 -0.892119,2.986607 0.0036,2.507062 1.760018,4.678358 4.222266,5.219605 0.671605,0.147631 1.847589,0.120552 2.499401,-0.05755 z"
     id="path26" />
</svg>
